<svg viewBox="0 0 64 64" fill="none" xmlns="http://www.w3.org/2000/svg">
  <rect width="64" height="64" rx="12" fill="#0B0F23"/>
  <defs>
    <linearGradient id="grad" x1="0%" y1="0%" x2="100%" y2="100%">
      <stop offset="0%" style="stop-color:#00D4FF;stop-opacity:1" />
      <stop offset="100%" style="stop-color:#7B2FFF;stop-opacity:1" />
    </linearGradient>
  </defs>
  <g transform="translate(14, 16)">
    <path d="M 4 12 Q 2 12 1 10.5 Q 0.5 8 2 6.5 Q 3 4 5 3.5 Q 7 2 9 2.5 Q 11 1 13 2 Q 15 1 16 3 Q 18 2.5 19 5 Q 20 4 21 6 Q 21.5 8 20 10 Q 19 12 17 12 Z" fill="url(#grad)" stroke="none"/>
  </g>
  <g transform="translate(28, 28)">
    <circle cx="6" cy="6" r="4" fill="url(#grad)"/>
    <circle cx="12" cy="10" r="2.5" fill="url(#grad)" opacity="0.8"/>
    <circle cx="5" cy="5.5" r="0.8" fill="#0B0F23"/>
    <circle cx="6.5" cy="5.5" r="0.8" fill="#0B0F23"/>
    <circle cx="8" cy="5.5" r="0.8" fill="#0B0F23"/>
  </g>
</svg>
